/* XPM */
static char *_0372b653f264d89f4d7a3d318419d60ov16PEzfuYNjE5TN[] = {
/* columns rows colors chars-per-pixel */
"64 64 37 1 ",
"  c #000605",
". c #020C0C",
"X c #06100F",
"o c #050E12",
"O c #071014",
"+ c #0A1416",
"@ c #0E1817",
"# c #0C161A",
"$ c #0F181B",
"% c #121B1D",
"& c #16201F",
"* c #18231F",
"= c #0F1821",
"- c #141D22",
"; c #161F2A",
": c #172024",
"> c #192326",
", c #1E2827",
"< c #172029",
"1 c #7F616D",
"2 c #1F282C",
"3 c #1E2730",
"4 c #1F2831",
"5 c #9B7382",
"6 c #26302F",
"7 c #202737",
"8 c #232C33",
"9 c #252D3A",
"0 c #273034",
"q c #2A3335",
"w c #273039",
"e c #2A333A",
"r c #2F393A",
"t c #313B3D",
"y c #2C3344",
"u c #2F3841",
"i c #313A42",
/* pixels */
"r8<>57-+585-5515555%#1555555>:-=e8>157:O1w5;3453:51-$2552552;:-$",
"221155;%#5851;--568;-586;;5>1>:-51>>15>%=78151-:5w8:-15;:1111>:-",
">58855;5#58555;5;55%-;5>55511:-=>157511>#48485;7-<<%$:1:55521:-=",
"11585-%=+;---->6;555;55-511--=#+1>551%#=#:-%:;>8>55112755;;1:$##",
">-->;%Oo+#Oo%$#-->5;-==##oo#-%#-:--:>=oo+OXX%@#%152:=$=+#OO#=$$=",
"1-$;5>%$----7-++-;;-$#+O-++-----1-$15:=#&:%:5>++----#+OO-+O-:--:",
"5--805>>5518w1%-800085559--11-->5-=282><55,5q,@-115855558;->1:-:",
"5-%>8;;>-----##1155851551$#-11>11=$15:-1&&%%>@#>538851111$$;2>:1",
"->---5;;$-$$%$$51,2288>;:::>1<3<>:;:;11:$-$$&##,1118881:>&::11;;",
"---%%%%#+#+@%@+%98821-=#@&:><-;=$:--$--$+$+#%++&08511:$#$&&:----",
"$--%%##++%$%%#o%-$$+@@+oO+$%+#+#$=--$$#OO##@-@+%-$$####OXO$@#OO#",
"-->;;-=o$-%-5%@%---:<135@:221<<1-::-::$O@&-->-#-::-::122#&251;:;",
"8511885#%55555%-w0521120@:,02214521156>#:62,52-&88852255@&253113",
"8515805%*55565-55321><>1$&>><><15511802-165,05>&252>;:;1+%&1;:;;",
"--->>55-*55%55-%12232224>,1,4322;;>:>21::5>:22:-18552125>>2,1311",
"O--$#$--@>%%%5%%::1:-$$:&%$%==#$O=:-$=:;#:&@>,&%&;;:-$--%%@$==##",
"%%-@+@@++@%&@@%:%@%&&@:5,>&:>+X:@%%$@@@+@%%%@@%:$@&&%@&6,,&*,@ *",
"665-%-%%:155>>>2,,50,:,q08,,5%$wqq5:%%%$,551>:>111661-2q5,,55%%0",
"ew1--;5-13731<<128ew1-1q33382$-eew1--1111582>>;218091;1055577$-e",
"91--;5712383211137881<1w38888=-u31-=-87325781<1;8888313859785$;i",
"7---785112333132w882349w898w8;<u31<;272;13338;389921789909897-;i",
";-;55;--$%--====<<-=-13<:-$<<$$4<1<:1,;$#==---==>::$-11>:-=-1=#7",
"5%%5>$##%%%%%@@@+$$$$&:$%+.+1$+<@:::&>%@%%$-%@@#+$&$$&-@$X @>-+:",
"5%*5-$@%q655551>@,6,,,,:,@X&q028>,,:&%@@5558655>@1051>>,,%X&r6,6",
"887585-@77878333<we424w3&@$2999y933383:-88878731;we75891&$%5999y",
"w8755685>5>582321wew0ww4>:,4w949ww38888,;515513816ew5ww9,>,8997y",
"==;55;%@>;11211<-<484224&&:13<<<-;<22>$+;;>51111-1857555&&&153;;",
"57585*%@5755511,12wq0428>,12ww9413372>-$5585111>15867586>>>58977",
"5;=%#$%*>5>,>,,1%>>>&$-::&-::1112<-$$%&&*5*>5555--5-%%%-&%-%:>1>",
"o.+@%%XXO++@@%&:+:&+O+@+%%%@@@@XoOO@%%+.+++@+%%%+-%O.+@@::%@$=$O",
"#=;qt6%X+@++%%%%>q0&@,q250052,%X=-,6r6%.@+++@%%*5qq%@565606555:+",
"i05%55*X5555,155:rq@+2q,>56,2:@.r0>*5,*@5555*555-qq@+5q5%55,&&X ",
"r8>>55:+1w5-15;5;55$$18515821:-$e8::28-O393;1733-52-%555555>;--$",
"5111451-$58155%%5q8;;15>>1111<::211122<-$78222-:9q9>;55;;;555%>-",
"158853>1#5855555-55%$;>;8552>:==12885<<,$3858213>11-%>5;65551-%%",
"11581-==#--%-;;8-55-;5855<<:--@+>1252-$%@---:<<8>55>;5555;;;-%##",
">--<1$OoO#oo$%#=;55-$$##@oo==$$$;---;$Oo@@..$%@%221-%$###Oo#-=%%",
"1%$11>-#->=-5;++%--%$+OO-+o->=-<>-@;5-$#&:%-5>++--;-$##O-++-----",
"5-=28511581505%;558885559--<2>=<5-%555;>55,5q1@%888088887>-15---",
"5--151>1--$-;$#>156851<11$$>2<<15-%15;;>%:%%&%@:25588>>51%#-11>1",
">>:::11-$%$@-#@>;115551-::::,1<1-;;%-51-%-%$%@#51115881--::>>511",
"=------$+$@@%@+-68575-$#%&::::-=$-;%=--%O##$%+O>08551;$#%%>%----",
"+=-=$$#OO$@@-@+---%%%##OO+@%@+O=@%%%%%#+o@@$%@@%$$$###OOO+%%##O#",
"----::-+@-%@>%@-----1158@:521<<1--;---%o@--->%@%->-->155%&551;;;",
"11;1701$>55555%:89511557@>26222455-1581#-65555%>w8555558%%557117",
"2211005-565565,:5511--->+$>1<<<<55558q8->q6555>*5511;--1@%>;-1-1",
"&;::;23:-55-55:%15551558>,,52333=;;-151-%55-55%%1455515q5%555575",
"O&:-$$:;@-%@:>-%->1>-$--&&$$==$@o%-%$%-1$-%$%5%%-:1:%%%%%%$%==##",
"&&@O@%@ @%&&$@%&@@&&@+:5::*,:+X:+&&+++@++&*:@$@&%@%&%%%55*@%5+X*",
"200>$=&:>252>:>,1200,:2e65,50$@0qr,:$&:+:,22,>>115665>5q66555@%6",
"096;=-1115551>>14weq2<3q44124-=eqw3<<12<1244<<<115ww1-1055157=-e",
"91##175;17753;3<4w442<38w8484=<u<<-=1443344321<14895;11919998=-t",
"9:#;795;13483313w4312wwwww34w<<u82-<23<<23333133997517ww70009;-i",
"-;151:-1#=-%====<>=$=<1<<-$:<$$23<<<<><<$===--==>:-$-11>;;#-;$#5",
"&:,,&+#%$$@@%%$@+$&@$:$$@+.+<@+,:$$>>&$&$@$$@$@@+%%@$%%%%O +5%#;",
"2&%>>&@@6665651,@,06:,,,,@+:r6,0,:,,,@++06666521%>65>55*5%X%6656",
"951787;-33347444<0e44w42&%-34y9y843443<-334w4431>9e52892%@%509yy",
"w955887531355533<weq4www,:>8994y0w440843<1348422<9r989985*>59977",
"%-175-$#153131;>-<484232&%:243<<=:2321-#11222211-1885258%%*57;;;",
">11551-$111511511200w240,>,379w4>1242<=$2432211<158892585*550999",
"5;%@%%%-:>>>>15,&:1::$&:&:&::11<,:&+$$::>,>1,11,%>>>%%%:&&%%;5;;",
".o+$%%@.O@#@$%%&+%&+X+++%%@++@+OXO+$:$+.O++@@%&:@-%O.+@@%%%+@@@X",
"$%56r6%.%@@@@%%&,q0&@201,w0,,,%+@:,0r0&.++@$$%:%,qq%@56550655>%O",
"t55%55:@515,>555:rq@+5r,>,8,,:+ r6>>,2:@652,2,,,>r0@@5q5:555>*@ "
};
